<mxfile host="app.diagrams.net" modified="2022-01-19T18:05:54.078Z" agent="5.0 (Windows)" etag="HxEi_XRS9fmH_RJSrfAh" version="16.2.7" type="github">
  <diagram id="kgpKYQtTHZ0yAKxKKP6v" name="Page-1">
    <mxGraphModel dx="1632" dy="351" grid="1" gridSize="10" guides="1" tooltips="1" connect="1" arrows="1" fold="1" page="1" pageScale="1" pageWidth="850" pageHeight="1100" math="0" shadow="0">
      <root>
        <mxCell id="0" />
        <mxCell id="1" parent="0" />
        <mxCell id="3nuBFxr9cyL0pnOWT2aG-1" value=":Profile Creation Service" style="shape=umlLifeline;perimeter=lifelinePerimeter;container=1;collapsible=0;recursiveResize=0;rounded=0;shadow=0;strokeWidth=1;whiteSpace=wrap;fillColor=#fff2cc;strokeColor=#A30000;" parent="1" vertex="1">
          <mxGeometry x="80" y="20" width="90" height="320" as="geometry" />
        </mxCell>
        <mxCell id="3nuBFxr9cyL0pnOWT2aG-3" value="1. Makes a request&#xa;to create a profile" style="verticalAlign=bottom;startArrow=none;endArrow=block;startSize=8;shadow=0;strokeWidth=1;startFill=0;" parent="3nuBFxr9cyL0pnOWT2aG-1" edge="1">
          <mxGeometry relative="1" as="geometry">
            <mxPoint x="-50" y="90" as="sourcePoint" />
            <mxPoint x="45" y="90" as="targetPoint" />
          </mxGeometry>
        </mxCell>
        <mxCell id="3nuBFxr9cyL0pnOWT2aG-5" value=":Media File Server" style="shape=umlLifeline;perimeter=lifelinePerimeter;container=1;collapsible=0;recursiveResize=0;rounded=0;shadow=0;strokeWidth=1;whiteSpace=wrap;fillColor=#fff2cc;strokeColor=#A30000;" parent="1" vertex="1">
          <mxGeometry x="220" y="20" width="70" height="320" as="geometry" />
        </mxCell>
        <mxCell id="3nuBFxr9cyL0pnOWT2aG-8" value="2. Uploads the photos on file server" style="verticalAlign=bottom;endArrow=block;shadow=0;strokeWidth=1;exitX=0.467;exitY=0.341;exitDx=0;exitDy=0;exitPerimeter=0;" parent="1" source="3nuBFxr9cyL0pnOWT2aG-1" target="3nuBFxr9cyL0pnOWT2aG-5" edge="1">
          <mxGeometry relative="1" as="geometry">
            <mxPoint x="175" y="160.0000000000001" as="sourcePoint" />
            <mxPoint x="345" y="160.0000000000001" as="targetPoint" />
          </mxGeometry>
        </mxCell>
        <mxCell id="3nuBFxr9cyL0pnOWT2aG-9" value="5. Confirms completion&#xa;of profile creation" style="verticalAlign=bottom;endArrow=block;shadow=0;strokeWidth=1;" parent="1" edge="1">
          <mxGeometry relative="1" as="geometry">
            <mxPoint x="130" y="200" as="sourcePoint" />
            <mxPoint x="20" y="200" as="targetPoint" />
          </mxGeometry>
        </mxCell>
        <mxCell id="Ra3xKOKlYM5xli56L1Jk-1" value=":User Profile Info DB" style="shape=umlLifeline;perimeter=lifelinePerimeter;container=1;collapsible=0;recursiveResize=0;rounded=0;shadow=0;strokeWidth=1;whiteSpace=wrap;fillColor=#fff2cc;strokeColor=#A30000;" vertex="1" parent="1">
          <mxGeometry x="320" y="20" width="70" height="320" as="geometry" />
        </mxCell>
        <mxCell id="Ra3xKOKlYM5xli56L1Jk-2" value=":Geo Sharded Indexer Queue" style="shape=umlLifeline;perimeter=lifelinePerimeter;container=1;collapsible=0;recursiveResize=0;rounded=0;shadow=0;strokeWidth=1;whiteSpace=wrap;fillColor=#fff2cc;strokeColor=#A30000;" vertex="1" parent="1">
          <mxGeometry x="425" y="20" width="80" height="320" as="geometry" />
        </mxCell>
        <mxCell id="Ra3xKOKlYM5xli56L1Jk-3" value=":Geo Sharded Indexer" style="shape=umlLifeline;perimeter=lifelinePerimeter;container=1;collapsible=0;recursiveResize=0;rounded=0;shadow=0;strokeWidth=1;whiteSpace=wrap;fillColor=#fff2cc;strokeColor=#A30000;" vertex="1" parent="1">
          <mxGeometry x="550" y="20" width="80" height="320" as="geometry" />
        </mxCell>
        <mxCell id="Ra3xKOKlYM5xli56L1Jk-4" value=":Geo Sharded Index" style="shape=umlLifeline;perimeter=lifelinePerimeter;container=1;collapsible=0;recursiveResize=0;rounded=0;shadow=0;strokeWidth=1;whiteSpace=wrap;fillColor=#fff2cc;strokeColor=#A30000;" vertex="1" parent="1">
          <mxGeometry x="680" y="20" width="80" height="320" as="geometry" />
        </mxCell>
        <mxCell id="Ra3xKOKlYM5xli56L1Jk-6" style="edgeStyle=orthogonalEdgeStyle;rounded=0;orthogonalLoop=1;jettySize=auto;html=1;startArrow=none;startFill=0;endArrow=oval;endFill=1;dashed=1;strokeColor=#A30000;" edge="1" parent="1" source="Ra3xKOKlYM5xli56L1Jk-5">
          <mxGeometry relative="1" as="geometry">
            <mxPoint x="25" y="340" as="targetPoint" />
          </mxGeometry>
        </mxCell>
        <mxCell id="Ra3xKOKlYM5xli56L1Jk-5" value="Bob" style="shape=umlActor;verticalLabelPosition=bottom;verticalAlign=top;html=1;outlineConnect=0;fillColor=#fff2cc;strokeColor=#A30000;" vertex="1" parent="1">
          <mxGeometry x="10" y="20" width="30" height="40" as="geometry" />
        </mxCell>
        <mxCell id="Ra3xKOKlYM5xli56L1Jk-7" value="3. Stores the user profile information in a data base" style="verticalAlign=bottom;endArrow=block;shadow=0;strokeWidth=1;entryX=0.443;entryY=0.403;entryDx=0;entryDy=0;entryPerimeter=0;" edge="1" parent="1" target="Ra3xKOKlYM5xli56L1Jk-1">
          <mxGeometry relative="1" as="geometry">
            <mxPoint x="125" y="149" as="sourcePoint" />
            <mxPoint x="264.5" y="139.12" as="targetPoint" />
          </mxGeometry>
        </mxCell>
        <mxCell id="Ra3xKOKlYM5xli56L1Jk-8" value="4. Publishes the user&#39;s current lat-long location for geo-hash indexing" style="verticalAlign=bottom;endArrow=block;shadow=0;strokeWidth=1;entryX=0.513;entryY=0.469;entryDx=0;entryDy=0;entryPerimeter=0;" edge="1" parent="1" target="Ra3xKOKlYM5xli56L1Jk-2">
          <mxGeometry relative="1" as="geometry">
            <mxPoint x="125" y="170" as="sourcePoint" />
            <mxPoint x="361.01" y="158.96000000000004" as="targetPoint" />
          </mxGeometry>
        </mxCell>
        <mxCell id="Ra3xKOKlYM5xli56L1Jk-9" value="6. Reads the user location from the queue" style="verticalAlign=bottom;endArrow=block;shadow=0;strokeWidth=1;entryX=0.475;entryY=0.691;entryDx=0;entryDy=0;entryPerimeter=0;" edge="1" parent="1" target="Ra3xKOKlYM5xli56L1Jk-3">
          <mxGeometry relative="1" as="geometry">
            <mxPoint x="465" y="241" as="sourcePoint" />
            <mxPoint x="476.03999999999996" y="180.07999999999993" as="targetPoint" />
          </mxGeometry>
        </mxCell>
        <mxCell id="Ra3xKOKlYM5xli56L1Jk-10" value="7. Use google&#xa;S2 library to&#xa;map the user&#xa;location to a&#xa;geo-shard" style="verticalAlign=bottom;endArrow=block;shadow=0;strokeWidth=1;exitX=0.525;exitY=0.756;exitDx=0;exitDy=0;exitPerimeter=0;" edge="1" parent="1" source="Ra3xKOKlYM5xli56L1Jk-3">
          <mxGeometry x="0.3077" y="41" relative="1" as="geometry">
            <mxPoint x="475" y="251" as="sourcePoint" />
            <mxPoint x="592" y="292" as="targetPoint" />
            <Array as="points">
              <mxPoint x="630" y="262" />
              <mxPoint x="630" y="292" />
            </Array>
            <mxPoint x="40" y="-33" as="offset" />
          </mxGeometry>
        </mxCell>
        <mxCell id="Ra3xKOKlYM5xli56L1Jk-11" value="8. Adds user in geo-sharded index" style="verticalAlign=bottom;endArrow=block;shadow=0;strokeWidth=1;" edge="1" parent="1">
          <mxGeometry relative="1" as="geometry">
            <mxPoint x="590" y="320" as="sourcePoint" />
            <mxPoint x="720" y="320" as="targetPoint" />
          </mxGeometry>
        </mxCell>
        <mxCell id="Ra3xKOKlYM5xli56L1Jk-12" value="" style="endArrow=none;html=1;rounded=0;strokeWidth=3;" edge="1" parent="1">
          <mxGeometry width="50" height="50" relative="1" as="geometry">
            <mxPoint y="80" as="sourcePoint" />
            <mxPoint x="770" y="80" as="targetPoint" />
          </mxGeometry>
        </mxCell>
        <mxCell id="Ra3xKOKlYM5xli56L1Jk-13" value="" style="endArrow=none;html=1;rounded=0;strokeWidth=3;" edge="1" parent="1">
          <mxGeometry width="50" height="50" relative="1" as="geometry">
            <mxPoint y="210" as="sourcePoint" />
            <mxPoint x="770" y="210" as="targetPoint" />
          </mxGeometry>
        </mxCell>
        <mxCell id="Ra3xKOKlYM5xli56L1Jk-14" value="&lt;font style=&quot;font-size: 14px&quot;&gt;&lt;b&gt;&lt;span style=&quot;background-color: rgb(204 , 204 , 204)&quot;&gt;Synchronous Process&lt;/span&gt;&lt;/b&gt;&lt;/font&gt;" style="text;html=1;strokeColor=none;fillColor=none;align=center;verticalAlign=middle;whiteSpace=wrap;rounded=0;" vertex="1" parent="1">
          <mxGeometry x="370" y="90" width="60" height="30" as="geometry" />
        </mxCell>
        <mxCell id="Ra3xKOKlYM5xli56L1Jk-16" value="&lt;font style=&quot;font-size: 14px&quot;&gt;&lt;b&gt;&lt;span style=&quot;background-color: rgb(204 , 204 , 204)&quot;&gt;Asynchronous Process&lt;/span&gt;&lt;/b&gt;&lt;/font&gt;" style="text;html=1;strokeColor=none;fillColor=none;align=center;verticalAlign=middle;whiteSpace=wrap;rounded=0;" vertex="1" parent="1">
          <mxGeometry x="270" y="220" width="60" height="30" as="geometry" />
        </mxCell>
      </root>
    </mxGraphModel>
  </diagram>
</mxfile>
